<svg xmlns="http://www.w3.org/2000/svg" xmlns:xlink="http://www.w3.org/1999/xlink" width="1640" zoomAndPan="magnify" viewBox="0 0 1230 1229.999941" height="1640" preserveAspectRatio="xMidYMid meet" version="1.0"><defs><clipPath id="id1"><path d="M 71.792969 211 L 299 211 L 299 1137.097656 L 71.792969 1137.097656 Z M 71.792969 211 " clip-rule="nonzero"/></clipPath><clipPath id="id2"><path d="M 932 93.097656 L 1158.542969 93.097656 L 1158.542969 1051 L 932 1051 Z M 932 93.097656 " clip-rule="nonzero"/></clipPath></defs><path fill="#575658" d="M 404.253906 218.566406 L 404.253906 218.503906 L 404.214844 218.503906 C 404.214844 218.503906 404.253906 218.503906 404.253906 218.566406 Z M 404.253906 218.566406 " fill-opacity="1" fill-rule="evenodd"/><g clip-path="url(#id1)"><path fill="#3b593f" d="M 194.25 316.402344 L 194.25 372.351562 L 154.640625 372.351562 L 154.640625 348.226562 L 134.863281 348.226562 L 134.863281 432.375 L 99.429688 432.375 L 99.429688 351.90625 L 71.835938 351.90625 L 71.835938 1137.101562 L 298.269531 1006.367188 L 298.269531 262.214844 L 268.191406 262.214844 L 268.191406 211.035156 L 237.199219 211.035156 L 237.199219 316.40625 L 194.253906 316.40625 Z M 173.605469 481.234375 L 173.605469 544.277344 L 150.386719 544.277344 L 150.386719 481.234375 Z M 99.425781 327.339844 L 99.425781 264.582031 L 71.832031 264.582031 L 71.832031 327.339844 Z M 214.28125 428.121094 L 214.28125 482.035156 L 192.65625 482.035156 L 192.65625 428.121094 Z M 214.28125 428.121094 " fill-opacity="1" fill-rule="evenodd"/></g><path fill="#dad8cc" d="M 478.734375 516.164062 L 478.734375 572.109375 L 439.1875 572.109375 L 439.1875 547.976562 L 419.34375 547.976562 L 419.34375 632.082031 L 383.976562 632.082031 L 383.976562 551.613281 L 356.320312 551.613281 L 356.320312 936.070312 L 582.804688 805.335938 L 582.804688 461.9375 L 552.742188 461.9375 L 552.742188 410.796875 L 521.746094 410.796875 L 521.746094 516.167969 L 478.738281 516.167969 Z M 458.152344 680.953125 L 458.152344 743.988281 L 434.917969 743.988281 L 434.917969 680.953125 Z M 383.972656 527.101562 L 383.972656 464.304688 L 356.316406 464.304688 L 356.316406 527.101562 Z M 414.585938 422.75 L 389.703125 422.75 L 389.703125 340.609375 L 414.585938 340.609375 Z M 477.613281 317.378906 L 445.265625 317.378906 L 445.265625 285.027344 L 477.613281 285.027344 Z M 480.148438 493.269531 L 447.800781 493.269531 L 447.800781 387.886719 L 480.148438 387.886719 Z M 557.285156 395.347656 L 523.285156 395.347656 L 523.285156 295.8125 L 557.285156 295.8125 Z M 498.75 627.882812 L 498.75 681.796875 L 477.191406 681.796875 L 477.191406 627.882812 Z M 498.75 627.882812 " fill-opacity="1" fill-rule="evenodd"/><path fill="#344e41" d="M 769.953125 233.613281 L 769.953125 289.5625 L 730.347656 289.5625 L 730.347656 265.4375 L 710.566406 265.4375 L 710.566406 349.585938 L 675.136719 349.585938 L 675.136719 269.113281 L 647.539062 269.113281 L 647.539062 883.082031 L 873.976562 752.351562 L 873.976562 179.425781 L 843.898438 179.425781 L 843.898438 128.246094 L 812.90625 128.246094 L 812.90625 233.617188 L 769.957031 233.617188 Z M 749.3125 398.445312 L 749.3125 461.488281 L 726.089844 461.488281 L 726.089844 398.445312 Z M 675.132812 244.550781 L 675.132812 181.792969 L 647.535156 181.792969 L 647.535156 244.550781 Z M 789.984375 345.332031 L 789.984375 399.246094 L 768.363281 399.246094 L 768.363281 345.332031 Z M 789.984375 345.332031 " fill-opacity="1" fill-rule="evenodd"/><g clip-path="url(#id2)"><path fill="#588159" d="M 1054.445312 324.238281 L 1054.445312 380.1875 L 1014.894531 380.1875 L 1014.894531 356.050781 L 995.054688 356.050781 L 995.054688 440.15625 L 959.683594 440.15625 L 959.683594 359.6875 L 932.027344 359.6875 L 932.027344 1050.847656 L 1158.511719 920.117188 L 1158.511719 270.011719 L 1128.449219 270.011719 L 1128.449219 218.871094 L 1097.453125 218.871094 L 1097.453125 324.242188 L 1054.449219 324.242188 Z M 1033.859375 489.03125 L 1033.859375 552.0625 L 1010.628906 552.0625 L 1010.628906 489.03125 Z M 959.679688 335.175781 L 959.679688 272.378906 L 932.023438 272.378906 L 932.023438 335.175781 Z M 990.292969 230.824219 L 965.410156 230.824219 L 965.410156 148.683594 L 990.292969 148.683594 Z M 1053.324219 125.453125 L 1020.976562 125.453125 L 1020.976562 93.101562 L 1053.324219 93.101562 Z M 1055.855469 301.34375 L 1023.507812 301.34375 L 1023.507812 195.960938 L 1055.855469 195.960938 Z M 1132.996094 203.421875 L 1098.992188 203.421875 L 1098.992188 103.886719 L 1132.996094 103.886719 Z M 1074.457031 435.957031 L 1074.457031 489.871094 L 1052.898438 489.871094 L 1052.898438 435.957031 Z M 1074.457031 435.957031 " fill-opacity="1" fill-rule="evenodd"/></g></svg>